<?xml version="1.0" encoding="UTF-8"?>
<svg width="15px" height="15px" viewBox="0 0 15 15" version="1.1" xmlns="http://www.w3.org/2000/svg" xmlns:xlink="http://www.w3.org/1999/xlink">
    <!-- Generator: Sketch 50.2 (55047) - http://www.bohemiancoding.com/sketch -->
    <title>check</title>
    <desc>Created with Sketch.</desc>
    <defs></defs>
    <g id="Page-1" stroke="none" stroke-width="1" fill="none" fill-rule="evenodd">
        <g id="check" fill="#3EAC51">
            <path d="M0.222,6.87 C0.0701621243,6.71709033 0.0114344804,6.49479142 0.0679392034,6.28684113 C0.124443926,6.07889083 0.287596605,5.91688175 0.495939203,5.86184113 C0.704281802,5.80680051 0.926162124,5.86709033 1.078,6.02 L5.761,9.4 L13.961,0.25 C14.0896156,0.0810132607 14.2986146,-0.0065213046 14.5092692,0.020369746 C14.7199238,0.0472607967 14.9002305,0.18449207 14.9822694,0.380369845 C15.0643083,0.57624762 15.0356157,0.801013384 14.907,0.97 L6.351,14.17 C6.25104156,14.3365714 6.08123372,14.4491211 5.88888172,14.4762949 C5.69652973,14.5034688 5.5021893,14.4423628 5.36,14.31 L0.222,6.87 Z" id="Shape_1_copy_9"></path>
        </g>
    </g>
</svg>