<?xml version="1.0" encoding="UTF-8"?>
<svg width="14px" height="15px" viewBox="0 0 44 15" version="1.1" xmlns="http://www.w3.org/2000/svg" xmlns:xlink="http://www.w3.org/1999/xlink">
    <!-- Generator: Sketch 50.2 (55047) - http://www.bohemiancoding.com/sketch -->
    <title>datepicker</title>
    <desc>Created with Sketch.</desc>
    <defs></defs>
    <g id="Page-1" stroke="none" stroke-width="1" fill="none" fill-rule="evenodd">
        <g id="datepicker" fill="#AAAAAA">
            <path d="M13,2 L13,14 L1,14 L1,2 L13,2 Z M13,1 L1,1 C0.44771525,1 0,1.44771525 0,2 L0,14 C0,14.5522847 0.44771525,15 1,15 L13,15 C13.5522847,15 14,14.5522847 14,14 L14,2 C14,1.44771525 13.5522847,1 13,1 Z M4,1 L2,1 L2,0 L4,0 L4,1 Z M12,1 L10,1 L10,0 L12,0 L12,1 Z M5,9 L3,9 L3,7 L5,7 L5,9 Z M8,9 L6,9 L6,7 L8,7 L8,9 Z M11,9 L9,9 L9,7 L11,7 L11,9 Z M5,12 L3,12 L3,10 L5,10 L5,12 Z M8,12 L6,12 L6,10 L8,10 L8,12 Z M11,12 L9,12 L9,10 L11,10 L11,12 Z M13,5 L1,5 L1,4 L13,4 L13,5 Z" id="Shape_3_copy_2"></path>
        </g>
    </g>
</svg>