<?xml version="1.0" encoding="UTF-8"?>
<svg width="8px" height="9px" viewBox="0 0 8 9" version="1.1" xmlns="http://www.w3.org/2000/svg" xmlns:xlink="http://www.w3.org/1999/xlink">
    <!-- Generator: Sketch 52.2 (67145) - http://www.bohemiancoding.com/sketch -->
    <title>dental</title>
    <desc>Created with Sketch.</desc>
    <g id="Page-1" stroke="none" stroke-width="1" fill="none" fill-rule="evenodd">
        <g id="dental" transform="translate(0.000000, -1.000000)" fill="#333333">
            <path d="M5.3395,0.985074999 C5.05286905,1.00614858 4.77205078,1.07677315 4.5095,1.19381639 C4.18475064,1.3363457 3.81524936,1.3363457 3.4905,1.19381639 C3.22757302,1.07786731 2.94694599,1.00729083 2.6605,0.985074999 C1.15,0.880454014 0,2.17194752 0,3.76779298 C0,4.6418037 0.481,5.23048446 0.887,6.29421457 C1.13643025,7.02683255 1.3350687,7.77580883 1.4815,8.53580678 C1.642,9.21008653 1.9815,9.99849826 2.67,9.99849826 C3.37,9.99849826 3.3115,8.14635642 3.47,7.33942327 C3.51378454,7.08572473 3.62093954,6.84723115 3.7815,6.64612152 C3.83393675,6.58296404 3.91171793,6.54643168 3.99375,6.54643168 C4.07578207,6.54643168 4.15356325,6.58296404 4.206,6.64612152 C4.37395023,6.84262482 4.4820607,7.08324497 4.5175,7.33942327 C4.6795,8.14785815 4.6225,10 5.3205,10 C6.0185,10 6.358,9.21158827 6.5205,8.53730852 C6.66756423,7.77765374 6.86551122,7.02876527 7.113,6.29571631 C7.519,5.23048446 8,4.64380601 8,3.76779298 C8,2.17194752 6.85,0.880454014 5.3395,0.985074999 Z" id="Path"></path>
        </g>
    </g>
</svg>