<?xml version="1.0" encoding="UTF-8"?>
<svg width="15px" height="15px" viewBox="0 0 15 15" version="1.1" xmlns="http://www.w3.org/2000/svg" xmlns:xlink="http://www.w3.org/1999/xlink">
    <!-- Generator: Sketch 50.2 (55047) - http://www.bohemiancoding.com/sketch -->
    <title>hint</title>
    <desc>Created with Sketch.</desc>
    <defs></defs>
    <g id="Page-1" stroke="none" stroke-width="1" fill="none" fill-rule="evenodd">
        <g id="hint" transform="translate(-1.000000, -1.000000)" fill="#394C5A">
            <path d="M8.5,16.01 C5.46239757,16.0104045 2.72367216,14.1809082 1.56095176,11.3746456 C0.398231366,8.56838292 1.04050823,5.33803403 3.18827451,3.18998173 C5.33604078,1.04192943 8.56630412,0.399222399 11.3727216,1.56156909 C14.179139,2.72391578 16.009,5.46239755 16.009,8.5 C16.0045917,12.6454408 12.6454402,16.0050397 8.5,16.01 Z M8.5,1.91 C5.83625533,1.90636011 3.43268218,3.50789294 2.41032118,5.96763417 C1.38796018,8.4273754 1.94820538,11.2607826 3.82975513,13.1463381 C5.71130488,15.0318936 8.54351425,15.5981633 11.0054242,14.5810357 C13.4673341,13.5639081 15.0739749,11.1637464 15.076,8.5 C15.0789199,6.75375531 14.3874783,5.07798866 13.1540088,3.84189317 C11.9205393,2.60579769 10.2462469,1.91079384 8.5,1.91 Z M8.578,4.5 C7.15362818,4.50165198 5.99920395,5.65562893 5.997,7.08 C5.997,7.31195959 6.18504041,7.5 6.417,7.5 C6.64895959,7.5 6.837,7.31195959 6.837,7.08 C6.84196449,6.11965948 7.62362133,5.34470492 8.583969,5.34801031 C9.54431666,5.3513157 10.3206205,6.13163256 10.3189742,7.0919845 C10.3173279,8.05233645 9.53835335,8.82998717 8.578,8.83 C8.46611627,8.8283664 8.35833585,8.87209149 8.27921367,8.95121367 C8.20009149,9.03033585 8.1563664,9.13811627 8.158,9.25 L8.158,10.51 C8.15044176,10.6647595 8.22870386,10.8111101 8.36161138,10.8907545 C8.4945189,10.9703989 8.6604811,10.9703989 8.79338862,10.8907545 C8.92629614,10.8111101 9.00455824,10.6647595 8.997,10.51 L8.997,9.62 C10.3217113,9.40265716 11.257681,8.20476051 11.1481886,6.86681083 C11.0386963,5.52886115 9.92042209,4.49907548 8.578,4.5 Z M8.578,11.61 C8.90371726,11.6105521 9.16736751,11.874948 9.16699962,12.2006655 C9.16663174,12.5263831 8.9023849,12.7901828 8.57666723,12.7899991 C8.25094956,12.7898153 7.98700047,12.5257177 7.987,12.2 C7.98646457,12.0431852 8.04859069,11.8926532 8.15956999,11.7818616 C8.27054929,11.6710701 8.42118633,11.609199 8.578,11.61 Z" id="Shape"></path>
        </g>
    </g>
</svg>