<?xml version="1.0" encoding="UTF-8"?>
<svg width="50px" height="50px" viewBox="0 0 50 50" version="1.1" xmlns="http://www.w3.org/2000/svg" xmlns:xlink="http://www.w3.org/1999/xlink">
    <!-- Generator: Sketch 50.2 (55047) - http://www.bohemiancoding.com/sketch -->
    <title>icon-8</title>
    <desc>Created with Sketch.</desc>
    <defs></defs>
    <g id="Page-1" stroke="none" stroke-width="1" fill="none" fill-rule="evenodd">
        <g id="icon-8">
            <path d="M10.55,10.92 L47.63,10.92 C47.6428215,10.9252246 47.6571785,10.9252246 47.67,10.92 C48.1208729,10.9267672 48.519817,10.6291844 48.6418346,10.1950832 C48.7638523,9.76098206 48.5783714,9.29912842 48.19,9.07 L42.33,3.29 C42.1421579,3.1076469 41.8917671,3.00391355 41.63,3 L16.62,3 C16.3539821,2.99734525 16.0980896,3.10186471 15.91,3.29 L9.84,9.21 C9.55154005,9.49609046 9.46483814,9.92826679 9.62062905,10.3034815 C9.77641996,10.6786962 10.1437349,10.9223626 10.55,10.92 Z" id="Path" fill="#20AA2F" fill-rule="nonzero"></path>
            <polygon id="Path" fill="#FFFFFF" fill-rule="nonzero" points="17.03 5 41.21 5 45.19 8.92 13 8.92"></polygon>
            <path d="M47.36,34.36 C46.3285477,33.6380494 44.983593,33.5419812 43.86,34.11 L36.03,37.66 C35.5805154,37.1443506 34.9893294,36.7722512 34.33,36.59 L23.22,33.35 C21.37,32.81 16.27,32.51 11.05,33.2 L11.05,32.01 C11.05,31.4577153 10.6022847,31.01 10.05,31.01 L2.02,31.01 C1.75305512,31.0073304 1.49612464,31.1115076 1.30641987,31.2993341 C1.1167151,31.4871606 1.00998665,31.7430418 1.01,32.01 L1.01,46 C1.00998665,46.2669582 1.1167151,46.5228394 1.30641987,46.7106659 C1.49612464,46.8984924 1.75305512,47.0026696 2.02,47 L10.05,47 C10.6022847,47 11.05,46.5522847 11.05,46 L11.05,43.88 L11.08,43.87 C12.42,43.51 14.44,42.95 15.43,43.4 C19.9138117,45.4158389 24.7642767,46.4880469 29.68,46.55 C31.5170691,46.6312309 33.3528691,46.3631565 35.09,45.76 L46.84,40.43 C47.9715373,39.9572118 48.7515087,38.9006003 48.87,37.68 C48.9952885,36.383149 48.419805,35.1178476 47.36,34.36 Z" id="Path" fill="#20AA2F" fill-rule="nonzero"></path>
            <polygon id="Path" fill="#FFFFFF" fill-rule="nonzero" points="9.04 45 3.02 45 3.02 33.01 9.04 33.01"></polygon>
            <path d="M46.01,38.61 L34.26,43.94 C32.65,44.67 25.09,45.51 16.25,41.57 C14.76,40.91 12.76,41.35 11.05,41.81 L11.05,35.21 C16.18,34.5 21.19,34.83 22.66,35.26 L33.76,38.51 C34.1696364,38.6020382 34.5132679,38.8791604 34.69,39.26 C34.6967405,39.2942256 34.7067877,39.327716 34.72,39.36 C34.7229558,39.37203 34.7300322,39.3826446 34.74,39.39 C34.9600667,40.0862383 34.7005191,40.8446039 34.1,41.26 C33.7423475,41.4695487 33.3102218,41.5098316 32.92,41.37 L21.26,37.97 C20.9088882,37.8329005 20.5105149,37.9048777 20.2295778,38.1561746 C19.9486407,38.4074714 19.8328747,38.7953892 19.9301403,39.1595529 C20.027406,39.5237165 20.3211767,39.8022498 20.69,39.88 L32.36,43.29 C32.7067547,43.3961178 33.067371,43.4500417 33.43,43.45 C34.0487297,43.4511011 34.6552452,43.277811 35.18,42.95 C35.9101885,42.4782197 36.4434506,41.7565383 36.68,40.92 C36.8077145,40.4616313 36.8517521,39.9839933 36.81,39.51 L44.7,35.93 C45.1680747,35.6570732 45.7511392,35.6765087 46.2,35.98 C46.6646557,36.3337027 46.9202098,36.897425 46.88,37.48 C46.8263554,37.9906143 46.4899266,38.427585 46.01,38.61 Z" id="Path" fill="#FFFFFF" fill-rule="nonzero"></path>
            <path d="M15.32,13.26 C14.9297441,12.8672409 14.2957487,12.8627761 13.9,13.25 L9.85,17.2 C9.55143517,17.4828207 9.45976398,17.9212482 9.62,18.3 C9.77610771,18.6757104 10.143149,18.9204046 10.55,18.92 L47.63,18.92 C48.036851,18.9204046 48.4038923,18.6757104 48.56,18.3 C48.7195541,17.9261749 48.6320585,17.4926739 48.34,17.21 L44.32,13.25 C43.9242513,12.8627761 43.2902559,12.8672409 42.9,13.26 C42.5150288,13.6527817 42.5194965,14.2827181 42.91,14.67 L45.19,16.92 L13,16.92 L15.3,14.67 C15.4921301,14.4870576 15.6025238,14.2344718 15.6062865,13.9692026 C15.6100492,13.7039335 15.506864,13.4483182 15.32,13.26 Z" id="Path" fill="#FF982C" fill-rule="nonzero"></path>
            <path d="M10.55,26.91 L47.63,26.91 C48.0362651,26.9123626 48.40358,26.6686962 48.559371,26.2934815 C48.7151619,25.9182668 48.6284599,25.4860905 48.34,25.2 L44.32,21.24 C44.0645551,20.9881277 43.694142,20.8916663 43.3482918,20.986952 C43.0024415,21.0822376 42.733697,21.3547941 42.6432917,21.701952 C42.5528864,22.04911 42.654555,22.4181278 42.91,22.67 L45.19,24.91 L13,24.91 L15.3,22.67 C15.4921301,22.4870576 15.6025238,22.2344718 15.6062865,21.9692026 C15.6100492,21.7039335 15.506864,21.4483182 15.32,21.26 C14.9325079,20.8644326 14.2984789,20.8555026 13.9,21.24 L9.84,25.2 C9.55154005,25.4860905 9.46483814,25.9182668 9.62062905,26.2934815 C9.77641996,26.6686962 10.1437349,26.9123626 10.55,26.91 Z" id="Path" fill="#20AA2F" fill-rule="nonzero"></path>
        </g>
    </g>
</svg>