<?xml version="1.0" encoding="UTF-8"?>
<svg width="50px" height="50px" viewBox="0 0 50 50" version="1.1" xmlns="http://www.w3.org/2000/svg" xmlns:xlink="http://www.w3.org/1999/xlink">
    <!-- Generator: Sketch 50.2 (55047) - http://www.bohemiancoding.com/sketch -->
    <title>icon-5</title>
    <desc>Created with Sketch.</desc>
    <defs></defs>
    <g id="Page-1" stroke="none" stroke-width="1" fill="none" fill-rule="evenodd">
        <g id="icon-5">
            <path d="M27.709,38.48 L27.709,38.42 C28.1199159,37.911607 28.4338057,37.3319616 28.635,36.71 C29.286787,36.0593718 29.4283854,35.055533 28.982,34.25 L28.982,32.99 C28.982,30.69 27.494,29.32 24.999,29.32 C22.542,29.32 21.015,30.72 21.015,32.99 L21.015,34.25 C20.794548,34.6416285 20.7101456,35.0952912 20.775,35.54 C20.8389618,35.9825982 21.0437321,36.3928401 21.359,36.71 C21.5632463,37.3312578 21.8779587,37.9105454 22.288,38.42 C20.9366848,39.2703499 19.4858159,39.9388448 17.969,40.42 C17.4001106,40.6377776 17.0219138,41.1808904 17.015,41.79 L17.015,43.52 C17.0189582,43.9138528 17.1792221,44.2899998 17.4605311,44.5656826 C17.74184,44.8413654 18.1211476,44.9939984 18.515,44.99 L31.49,44.99 C31.8839311,44.9942648 32.2633921,44.8417186 32.5447592,44.5659788 C32.8261264,44.290239 32.9863065,43.9139369 32.99,43.52 L32.99,41.79 C32.9812497,41.1790624 32.599676,40.635657 32.028,40.42 C30.5261944,39.9216648 29.0790582,39.2716429 27.709,38.48 Z" id="Path" fill="#FF982C" fill-rule="nonzero"></path>
            <path d="M19.017,43.04 L19.017,42.11 C23.06,40.55 24.004,39.8 24.245,39.04 C24.2740809,38.9460494 24.2892419,38.8483455 24.29,38.75 L24.29,38.06 C24.2907615,37.8047337 24.1891901,37.5598099 24.008,37.38 C23.6219072,36.9637266 23.3440859,36.4589092 23.199,35.91 C23.1361895,35.625396 22.9980368,35.362906 22.799,35.15 C22.9401429,34.9778577 23.0181297,34.7626001 23.02,34.54 L23.02,32.99 C23.02,31.81 23.65,31.26 25.002,31.26 C26.373,31.26 26.983,31.79 26.983,32.99 L26.983,34.54 C26.9752683,34.8294668 27.0442703,35.1158251 27.183,35.37 C26.9950017,35.4993896 26.8581151,35.6903942 26.796,35.91 C26.654971,36.4596688 26.3781737,36.9651247 25.991,37.38 C25.8098099,37.5598099 25.7082385,37.8047337 25.709,38.06 L25.709,38.75 C25.7097581,38.8483455 25.7249191,38.9460494 25.754,39.04 C25.954,39.67 26.517,40.39 30.982,42.11 L30.982,43.04 L19.017,43.04 Z" id="Path" fill="#FFFFFF" fill-rule="nonzero"></path>
            <path d="M48.045,19.03 C46.546499,18.5273596 45.1001037,17.8810196 43.726,17.1 L43.726,17.03 C44.1368734,16.5214195 44.4510632,15.9418461 44.653,15.32 C44.9680023,15.0066722 45.1729158,14.5996521 45.237,14.16 C45.3011045,13.712316 45.2175519,13.2559361 44.999,12.86 L44.999,11.6 C44.999,9.3 43.509,7.93 41.014,7.93 C38.557,7.93 37.03,9.33 37.03,11.6 L37.03,12.86 C36.5828476,13.6648859 36.723211,14.6686474 37.374,15.32 C37.5774324,15.941609 37.8922211,16.5210372 38.303,17.03 L38.303,17.04 C36.9522732,17.8801262 35.5020941,18.5486128 33.986,19.03 C33.4125258,19.2418841 33.0317958,19.7886348 33.032,20.4 L33.032,22.13 C33.0359582,22.5238528 33.1962221,22.8999998 33.4775311,23.1756826 C33.75884,23.4513654 34.1381476,23.6039984 34.532,23.6 L47.5,23.6 C47.8939311,23.6042648 48.2733921,23.4517186 48.5547592,23.1759788 C48.8361264,22.900239 48.9963065,22.5239369 49,22.13 L49,20.4 C49.0000497,19.7883795 48.6188681,19.2415537 48.045,19.03 Z" id="Path" fill="#20AA2F" fill-rule="nonzero"></path>
            <path d="M46.995,21.66 L35.034,21.66 L35.034,20.72 C39.075,19.17 40.019,18.41 40.26,17.65 C40.2898363,17.5562255 40.3050151,17.4584066 40.305,17.36 L40.305,16.67 C40.3026429,16.4157485 40.2023555,16.1721933 40.025,15.99 C39.6357603,15.5763153 39.3580651,15.0704765 39.218,14.52 C39.1504672,14.2361051 39.010992,13.9743739 38.813,13.76 C38.9542138,13.5880359 39.0315894,13.3725147 39.032,13.15 L39.032,11.6 C39.032,10.42 39.662,9.87 41.014,9.87 C42.385,9.87 42.997,10.4 42.997,11.6 L42.997,13.15 C42.9909336,13.442475 43.0597825,13.7316403 43.197,13.99 C43.0113242,14.1173541 42.8747721,14.3043635 42.81,14.52 C42.6695254,15.0703149 42.3918836,15.5760565 42.003,15.99 C41.8256445,16.1721933 41.7253571,16.4157485 41.723,16.67 L41.723,17.36 C41.7229849,17.4584066 41.7381637,17.5562255 41.768,17.65 C42.008,18.41 42.953,19.17 46.994,20.72 L46.994,21.66 L46.995,21.66 Z" id="Path" fill="#FFFFFF" fill-rule="nonzero"></path>
            <path d="M16.012,19.03 C14.5138559,18.5272649 13.0678015,17.8809275 11.694,17.1 L11.694,17.03 C12.1045559,16.5213671 12.4184081,15.9417912 12.62,15.32 C13.2743194,14.6704863 13.4154105,13.6644454 12.965,12.86 L12.965,11.6 C12.965,9.3 11.477,7.93 8.982,7.93 C6.525,7.93 4.998,9.33 4.998,11.6 L4.998,12.86 C4.55084763,13.6648859 4.69121102,14.6686474 5.342,15.32 C5.54543238,15.941609 5.86022115,16.5210372 6.271,17.03 L6.271,17.04 C4.92027319,17.8801262 3.4700941,18.5486128 1.954,19.03 C1.38052583,19.2418841 0.999795801,19.7886348 1,20.4 L1,22.13 C1.00395822,22.5238528 1.1642221,22.8999998 1.44553107,23.1756826 C1.72684003,23.4513654 2.10614756,23.6039984 2.5,23.6 L15.473,23.6 C15.8668524,23.6039984 16.24616,23.4513654 16.5274689,23.1756826 C16.8087779,22.8999998 16.9690418,22.5238528 16.973,22.13 L16.973,20.4 C16.9718337,19.7869368 16.5880453,19.2398087 16.012,19.03 Z" id="Path" fill="#20AA2F" fill-rule="nonzero"></path>
            <path d="M14.963,21.66 L3,21.66 L3,20.72 C7.041,19.17 7.985,18.41 8.226,17.65 C8.25583628,17.5562255 8.27101509,17.4584066 8.271,17.36 L8.271,16.67 C8.26864293,16.4157485 8.16835551,16.1721933 7.991,15.99 C7.60176028,15.5763153 7.32406512,15.0704765 7.184,14.52 C7.11646721,14.2361051 6.97699204,13.9743739 6.779,13.76 C6.92021375,13.5880359 6.99758938,13.3725147 6.998,13.15 L6.998,11.6 C6.998,10.42 7.628,9.87 8.98,9.87 C10.351,9.87 10.961,10.4 10.961,11.6 L10.961,13.15 C10.9544861,13.4425226 11.0233615,13.7317994 11.161,13.99 C10.9756069,14.117645 10.8391353,14.3045442 10.774,14.52 C10.6336054,15.0705606 10.3555663,15.576399 9.966,15.99 C9.78927284,16.1725233 9.68939637,16.4159498 9.687,16.67 L9.687,17.36 C9.68698491,17.4584066 9.70216372,17.5562255 9.732,17.65 C9.972,18.41 10.917,19.17 14.958,20.72 L14.958,21.66 L14.963,21.66 Z" id="Path" fill="#FFFFFF" fill-rule="nonzero"></path>
            <path d="M17.055,10.02 C22.1574321,7.21994355 28.3365679,7.21994355 33.439,10.02 C33.9135407,10.3002158 34.5253438,10.1436872 34.807,9.67 C34.9399264,9.44657822 34.9763432,9.17872715 34.9078915,8.92792623 C34.8394398,8.67712532 34.6719985,8.4649137 34.444,8.34 C28.7152846,5.18934517 21.7727154,5.18934517 16.044,8.34 C15.8162978,8.46522834 15.6493123,8.67767147 15.5814159,8.92851106 C15.5135194,9.17935065 15.5505507,9.44701636 15.684,9.67 C15.9699505,10.1398545 16.5788224,10.2952923 17.055,10.02 Z" id="Path" fill="#20AA2F" fill-rule="nonzero"></path>
            <path d="M42.561,24.68 C42.0218668,24.6152421 41.529576,24.9925615 41.452,25.53 C40.8814497,30.2203113 38.2331631,34.4058746 34.239,36.93 C34.0188183,37.0684581 33.8643984,37.2904919 33.8112149,37.5450938 C33.7580314,37.7996957 33.8106562,38.0649788 33.957,38.28 C34.2747687,38.7239792 34.8839712,38.842484 35.345,38.55 C39.8290061,35.7150271 42.8026114,31.0159964 43.445,25.75 C43.4501485,25.7135669 43.4524887,25.6767919 43.452,25.64 C43.4470773,25.1380816 43.061159,24.7222773 42.561,24.68 Z" id="Path" fill="#20AA2F" fill-rule="nonzero"></path>
            <path d="M9.039,25.53 C8.96142175,24.9929972 8.46976919,24.6158269 7.931,24.68 C7.43180518,24.7232836 7.04731304,25.1389508 7.043,25.64 C7.04272148,25.6767555 7.04472534,25.7134928 7.049,25.75 C7.69078417,31.0148974 10.6623103,35.7135428 15.144,38.55 C15.6050288,38.842484 16.2142313,38.7239792 16.532,38.28 C16.6790012,38.0652742 16.7321179,37.7999024 16.6790893,37.5451388 C16.6260607,37.2903752 16.4714699,37.0682373 16.251,36.93 C12.2576307,34.4052469 9.6098698,30.2199343 9.039,25.53 Z" id="Path" fill="#20AA2F" fill-rule="nonzero"></path>
        </g>
    </g>
</svg>