<?xml version="1.0" encoding="UTF-8"?>
<svg width="48px" height="48px" viewBox="0 0 48 48" version="1.1" xmlns="http://www.w3.org/2000/svg" xmlns:xlink="http://www.w3.org/1999/xlink">
    <!-- Generator: Sketch 50.2 (55047) - http://www.bohemiancoding.com/sketch -->
    <title>icon-1</title>
    <desc>Created with Sketch.</desc>
    <defs></defs>
    <g id="Page-1" stroke="none" stroke-width="1" fill="none" fill-rule="evenodd">
        <g id="icon-1" transform="translate(-1.000000, 0.000000)" fill="#FFFFFF">
            <path d="M35,24 L15,24 C14.4477153,24 14,24.4477153 14,25 C14,25.5522847 14.4477153,26 15,26 L35,26 C35.5522847,26 36,25.5522847 36,25 C36,24.4477153 35.5522847,24 35,24 Z M34.993,45.034 C33.945,42.791 32.642,40 28.641,40 L26,40 L26,37 C26,36.4477153 25.5522847,36 25,36 C24.4477153,36 24,36.4477153 24,37 L24,40 L21.354,40 C17.443,40 16.099,42.754 15.019,44.967 L14.626,45.756 C14.5535433,45.8974295 14.515835,46.0540904 14.516,46.213 C14.554927,47.2188837 15.3874239,48.0110413 16.394,48 L33.6,48 C34.5925803,48.0434896 35.4326914,47.2745441 35.477,46.282 C35.4782365,46.1282811 35.444017,45.9763465 35.377,45.838 L34.993,45.034 Z M16.737,46 L16.815,45.845 C17.822,43.782 18.691,42.001 21.353,42.001 L28.64,42.001 C31.369,42.001 32.208,43.801 33.181,45.881 L33.238,46 L16.738,46 L16.737,46 Z M44.787,0 L5.206,0 C2.84024078,0.0481428812 0.959282865,2.00110132 1,4.367 L1,29.945 C0.983300481,31.0520579 1.42620707,32.1165189 2.22328147,32.8849775 C3.02035586,33.653436 4.10029187,34.0571459 5.206,34 L44.787,34 C45.8938881,34.0591535 46.975693,33.6563376 47.7743305,32.8876514 C48.572968,32.1189652 49.0168209,31.0533399 49,29.945 L49,4.367 C49.0373687,1.99973021 47.154086,0.0476069668 44.787,0 Z M47,29.945 C47.011042,30.5214748 46.7758183,31.0753212 46.3533106,31.4676634 C45.9308029,31.8600056 45.3610805,32.0536352 44.787,32 L5.206,32 C4.63276734,32.0528228 4.06421178,31.8586862 3.64299712,31.4663036 C3.22178246,31.0739209 2.9878868,30.5205338 3,29.945 L3,4.367 C2.95893057,3.10546965 3.94470488,2.04775079 5.206,2 L44.787,2 C46.0495903,2.04723001 47.0376886,3.10408888 47,4.367 L47,29.945 Z M25,22.069 C28.821455,22.0694058 32.1110064,19.3702433 32.8568214,15.6222734 C33.6026365,11.8743035 31.5969852,8.1214393 28.0664892,6.65886757 C24.5359931,5.19629585 20.4639929,6.43138316 18.3408533,9.60877147 C16.2177137,12.7861598 16.6347877,17.0208589 19.337,19.723 C20.8349286,21.2309225 22.8745417,22.075869 25,22.069 Z M20.75,9.812 C23.0972102,7.46478981 26.9027898,7.46478981 29.25,9.812 C31.5972102,12.1592102 31.5972102,15.9647898 29.25,18.312 C26.8723467,20.5845259 23.1276533,20.5845259 20.75,18.312 C19.6222396,17.1851433 18.9885944,15.6562552 18.9885944,14.062 C18.9885944,12.4677448 19.6222396,10.9388567 20.75,9.812 Z M23.123,17.457 C23.1316444,17.4638241 23.1406581,17.4701671 23.15,17.476 C23.158,17.483 23.161,17.496 23.17,17.505 C23.230288,17.5519628 23.2953058,17.5925151 23.364,17.626 C23.400461,17.6525731 23.4389072,17.6763095 23.479,17.697 C23.7183682,17.7984135 23.9886318,17.7984135 24.228,17.697 C24.2681284,17.6763724 24.3065793,17.6526331 24.343,17.626 C24.4116942,17.5925151 24.476712,17.5519628 24.537,17.505 C24.546,17.496 24.548,17.483 24.557,17.476 C24.566,17.469 24.576,17.466 24.584,17.457 L28.855,12.893 C29.2324866,12.489556 29.211444,11.8564866 28.808,11.479 C28.404556,11.1015134 27.7714866,11.122556 27.394,11.526 L23.853,15.31 L22.6,13.972 C22.3559876,13.7110174 21.9912783,13.6000387 21.6432546,13.6808684 C21.2952309,13.761698 21.0167658,14.0220562 20.9127546,14.3638684 C20.8087433,14.7056806 20.8949876,15.0770175 21.139,15.338 L23.123,17.457 Z" id="Shape"></path>
        </g>
    </g>
</svg>