<?xml version="1.0" encoding="UTF-8"?>
<svg width="50px" height="50px" viewBox="0 0 50 50" version="1.1" xmlns="http://www.w3.org/2000/svg" xmlns:xlink="http://www.w3.org/1999/xlink">
    <!-- Generator: Sketch 50.2 (55047) - http://www.bohemiancoding.com/sketch -->
    <title>icon-6</title>
    <desc>Created with Sketch.</desc>
    <defs>
        <path d="M48,26.93 L44.963,26.93 L44.963,19.68 C44.9656696,19.4130551 44.8614924,19.1561246 44.6736659,18.9664199 C44.4858394,18.7767151 44.2299582,18.6699867 43.963,18.67 L42.99,18.67 L41.177,12.8 L43.964,12.8 C44.5162847,12.8 44.964,12.3522847 44.964,11.8 C44.964,11.2477153 44.5162847,10.8 43.964,10.8 L40.558,10.8 L37.749,1.7 C37.585827,1.17428914 37.0284712,0.879297305 36.502,1.04 L4.882,10.83 C2.717,10.99 0.99,13.12 0.99,15.74 L0.99,42.71 C0.988879097,45.0005578 2.8404611,46.8606353 5.131,46.87 L43.964,46.87 C44.5162847,46.87 44.964,46.4222847 44.964,45.87 L44.964,38.84 L48,38.84 C48.5522847,38.84 49,38.3922847 49,37.84 L49,27.93 C49,27.3777153 48.5522847,26.93 48,26.93 Z" id="path-1"></path>
    </defs>
    <g id="Page-1" stroke="none" stroke-width="1" fill="none" fill-rule="evenodd">
        <g id="icon-6">
            <g id="Rectangle" transform="translate(0.000000, 1.000000)">
                <g id="Mask" fill="#20AA2F" fill-rule="nonzero">
                    <path d="M48,26.93 L44.963,26.93 L44.963,19.68 C44.9656696,19.4130551 44.8614924,19.1561246 44.6736659,18.9664199 C44.4858394,18.7767151 44.2299582,18.6699867 43.963,18.67 L42.99,18.67 L41.177,12.8 L43.964,12.8 C44.5162847,12.8 44.964,12.3522847 44.964,11.8 C44.964,11.2477153 44.5162847,10.8 43.964,10.8 L40.558,10.8 L37.749,1.7 C37.585827,1.17428914 37.0284712,0.879297305 36.502,1.04 L4.882,10.83 C2.717,10.99 0.99,13.12 0.99,15.74 L0.99,42.71 C0.988879097,45.0005578 2.8404611,46.8606353 5.131,46.87 L43.964,46.87 C44.5162847,46.87 44.964,46.4222847 44.964,45.87 L44.964,38.84 L48,38.84 C48.5522847,38.84 49,38.3922847 49,37.84 L49,27.93 C49,27.3777153 48.5522847,26.93 48,26.93 Z" id="path-1"></path>
                </g>
                <g id="Clipped">
                    <mask id="mask-2" fill="white">
                        <use xlink:href="#path-1"></use>
                    </mask>
                    <g id="path-1"></g>
                    <rect id="Rectangle-path" fill="#FF982C" fill-rule="nonzero" mask="url(#mask-2)" x="33" y="26.9199982" width="16" height="11.9300003"></rect>
                </g>
            </g>
            <polygon id="Path" fill="#FFFFFF" fill-rule="nonzero" points="36.137 4.25 40.9 19.67 8.639 19.67 6.422 13.45"></polygon>
            <path d="M4.484,13.96 L6.519,19.67 L5.131,19.67 C3.969,19.67 2.987,18.33 2.987,16.74 C2.92559904,15.6060183 3.50345805,14.5329067 4.484,13.96 Z" id="Path" fill="#FFFFFF" fill-rule="nonzero"></path>
            <path d="M42.966,45.86 L5.131,45.86 C4.56149832,45.8594702 4.01556186,45.6325912 3.61342627,45.2293303 C3.21129068,44.8260693 2.98593824,44.2795009 2.987,43.71 L2.98699627,20.94 C3.60360616,21.4105988 4.35539192,21.6700771 5.131,21.68 L42.966,21.68 L42.966,27.93 L39.1,27.93 C35.8111443,27.93 33.145,30.5961443 33.145,33.885 C33.145,37.1738557 35.8111443,39.84 39.1,39.84 L42.962,39.84 L42.962,45.86 L42.966,45.86 Z" id="Path" fill="#FFFFFF" fill-rule="nonzero"></path>
            <path d="M47.002,37.83 L39.102,37.83 C36.9204752,37.83 35.152,36.0615248 35.152,33.88 C35.152,31.6984752 36.9204752,29.93 39.102,29.93 L47,29.93 L47,37.83 L47.002,37.83 Z" id="Path" fill="#FFFFFF" fill-rule="nonzero"></path>
            <path d="M39.065,33.17 C38.8874611,33.3679636 38.7885672,33.6240918 38.787,33.89 C38.7848957,34.1506472 38.8846453,34.4018151 39.065,34.59 C39.2562087,34.7807944 39.5148866,34.8885769 39.785,34.89 C40.3317324,34.87682 40.77182,34.4367324 40.785,33.89 C40.7752138,33.62165 40.6686535,33.3659053 40.485,33.17 C40.0845478,32.7985323 39.4654522,32.7985323 39.065,33.17 Z" id="Path" fill="#FF982C" fill-rule="nonzero"></path>
        </g>
    </g>
</svg>