<?xml version="1.0" encoding="UTF-8"?>
<svg width="49px" height="48px" viewBox="0 0 49 48" version="1.1" xmlns="http://www.w3.org/2000/svg" xmlns:xlink="http://www.w3.org/1999/xlink">
    <!-- Generator: Sketch 50.2 (55047) - http://www.bohemiancoding.com/sketch -->
    <title>icon-3</title>
    <desc>Created with Sketch.</desc>
    <defs></defs>
    <g id="Page-1" stroke="none" stroke-width="1" fill="none" fill-rule="evenodd">
        <g id="icon-3" fill="#FFFFFF">
            <path d="M6.717,31.247 C6.71213748,30.5937549 7.10200744,30.0021607 7.70421574,29.7489849 C8.30642403,29.4958091 9.00189139,29.6311141 9.46525501,30.0915996 C9.92861863,30.5520852 10.0682541,31.2466961 9.81883522,31.8504701 C9.56941636,32.4542441 8.98026273,32.8477924 8.327,32.847 C7.44103462,32.8486624 6.72085766,32.1329585 6.717,31.247 Z M24.5,2.71050543e-20 C15.6262438,-0.0404608862 8.39411052,7.10936193 8.333,15.983 C8.333,24.454 23.018,46.611 23.642,47.55 C23.8338051,47.8360768 24.1555743,48.0077392 24.5,48.0077392 C24.8444257,48.0077392 25.1661949,47.8360768 25.358,47.55 C25.983,46.611 40.667,24.45 40.667,15.983 C40.6064381,7.10913065 33.3739812,-0.0410120776 24.5,2.71050543e-20 Z M24.5,45.119 C21.318,40.182 10.387,22.739 10.387,15.983 C10.4790087,8.25413321 16.7705856,2.03700893 24.5,2.03700893 C32.2294144,2.03700893 38.5209913,8.25413321 38.613,15.983 C38.615,22.735 27.684,40.178 24.5,45.115 L24.5,45.119 Z M24.5,7.653 C21.0963728,7.6926507 18.3653721,10.4766818 18.3911786,13.8804421 C18.4169851,17.2842024 21.1898851,20.0265043 24.5937222,20.0145425 C27.9975593,20.0025806 30.751117,17.2408576 30.753,13.837 C30.732621,10.4025346 27.9344909,7.63349107 24.5,7.649 L24.5,7.653 Z M24.5,17.985 C22.213649,17.9580087 20.3796445,16.0871536 20.3981366,13.800718 C20.4166288,11.5142824 22.2806535,9.67333612 24.567142,9.68332887 C26.8536305,9.69332161 28.7014932,11.5504901 28.7,13.837 C28.6807446,16.1395298 26.8025808,17.9926514 24.5,17.981 L24.5,17.985 Z M13.424,35.8 C11.9445148,38.972137 10.2613321,42.045223 8.385,45 C6.052,41.355 2.006,34.48 1.992,31.789 C1.99309669,28.4037921 4.66645242,25.6231844 8.049,25.489 C7.757,24.841 7.485,24.205 7.227,23.579 C3.09341515,24.1128816 0.000353500821,27.6350831 0.005,31.803 C0.027,35.997 6.796,46.227 7.567,47.378 C7.7540206,47.6539706 8.06626612,47.8185962 8.39963361,47.8169906 C8.7330011,47.815385 9.04364637,47.6477593 9.228,47.37 C11.2191839,44.3191518 13.0283374,41.1533002 14.646,37.889 C14.2433333,37.211 13.836,36.5146667 13.424,35.8 Z M40.673,32.844 C39.7906672,32.8384853 39.0793431,32.1197174 39.0830138,31.237375 C39.0866846,30.3550326 39.8039644,29.6422079 40.6863125,29.6440347 C41.5686607,29.6458614 42.2829828,30.3616499 42.283,31.244 C42.2802425,32.1307405 41.5597432,32.8476597 40.673,32.846 L40.673,32.844 Z M35.573,35.8 C37.0524852,38.972137 38.7356679,42.045223 40.612,45 C42.945,41.355 46.99,34.48 47.004,31.789 C47.0065407,28.4027087 44.3317516,25.6201507 40.948,25.489 C41.24,24.841 41.512,24.205 41.77,23.579 C45.9058485,24.1086346 49.0030636,27.6303781 49,31.8 C48.978,35.994 42.209,46.224 41.438,47.375 C41.2510499,47.6514025 40.9385497,47.816343 40.6048641,47.8147368 C40.2711784,47.8131306 39.9602806,47.6451894 39.776,47.367 C37.7860659,44.3155719 35.9772777,41.1497752 34.359,37.886 C34.759,37.21 35.1646667,36.5146667 35.576,35.8 L35.573,35.8 Z" id="Shape"></path>
        </g>
    </g>
</svg>