<?xml version="1.0" encoding="UTF-8"?>
<svg width="46px" height="49px" viewBox="0 0 46 49" version="1.1" xmlns="http://www.w3.org/2000/svg" xmlns:xlink="http://www.w3.org/1999/xlink">
    <!-- Generator: Sketch 50.2 (55047) - http://www.bohemiancoding.com/sketch -->
    <title>icon-2</title>
    <desc>Created with Sketch.</desc>
    <defs></defs>
    <g id="Page-1" stroke="none" stroke-width="1" fill="none" fill-rule="evenodd">
        <g id="icon-2" fill="#FFFFFF">
            <path d="M14.034,40.344 C12.544678,40.3517225 11.3428744,41.5639519 11.3480161,43.053285 C11.3531578,44.5426181 12.5633027,45.7465205 14.0526425,45.7439597 C15.5419823,45.7413989 16.74798,44.533342 16.748,43.044 C16.7413902,41.5501115 15.5279027,40.3428837 14.034,40.344 Z M14.034,43.752 C13.7481822,43.7507752 13.4913021,43.5773401 13.383334,43.3126965 C13.275366,43.0480528 13.3376145,42.7444211 13.5410069,42.5436106 C13.7443993,42.3428 14.0488015,42.2844353 14.3120442,42.3957752 C14.575287,42.5071152 14.7454264,42.7661898 14.743,43.052 C14.7391548,43.4405097 14.4225271,43.7531181 14.034,43.752 Z M35.117,5.038 L27.965,5.038 C27.4747428,2.68121729 25.3982342,0.99170572 22.991,0.991 L5.076,0.991 C2.27987637,0.988779151 0.00937098647,3.24989119 5.68434189e-14,6.046 L5.68434189e-14,43.941 C0.00716983582,46.7386721 2.27831958,49.0022156 5.076,49 L22.991,49 C25.7875127,49.0022194 28.0581791,46.7404997 28.067,43.944 L28.067,38.088 C28.0750651,38.0577166 28.0814086,38.0270008 28.086,37.996 C28.0812076,37.9653653 28.0748661,37.934993 28.067,37.905 L28.067,32.439 L32.325,29.009 L35.117,29.009 C41.117,29.009 45.991,23.633 45.991,17.025 C45.991,10.417 41.113,5.038 35.117,5.038 Z M5.076,2.989 L22.991,2.989 C24.2902923,2.99051958 25.4471563,3.81186896 25.877,5.038 L25.128,5.038 C22.9240579,5.04215949 20.7776986,5.7420973 18.995,7.038 L2.005,7.038 L2.005,6.048 C2.00941277,4.35570522 3.38370091,2.98678714 5.076,2.989 Z M22.991,47 L5.076,47 C3.383863,47.0027653 2.00941298,45.6341335 2.005,43.942 L2.005,38.994 L26.062,38.994 L26.062,43.942 C26.057587,45.6341335 24.683137,47.0027653 22.991,47 Z M26.062,37 L2.023,37 L2.023,9.033 L16.875,9.033 C14.3628914,12.0834018 13.4826735,16.1610829 14.5127927,19.9761184 C15.5429118,23.7911538 18.3559363,26.8716018 22.062,28.243 L22.062,35.183 C22.0632729,35.5678873 22.2853266,35.9178845 22.633,36.083 C22.7674804,36.1488678 22.9152551,36.1830749 23.065,36.183 C23.2943595,36.1831145 23.5167877,36.104382 23.695,35.96 L26.062,34.054 L26.062,37 Z M35.117,27.012 L31.97,27.012 C31.7406405,27.0118855 31.5182123,27.090618 31.34,27.235 L24.067,33.094 L24.067,27.489 C24.0663471,27.0204664 23.7404736,26.6152029 23.283,26.514 C19.827,25.745 16.096,21.831 16.096,16.851 C16.096,11.532 20.232,7.04 25.128,7.04 L27.016,7.04 C27.033,7.04 27.048,7.049 27.065,7.049 C27.082,7.049 27.096,7.04 27.113,7.04 L35.113,7.04 C39.92,7.04 43.982,11.614 43.982,17.026 C43.982,22.438 39.924,27.008 35.117,27.008 L35.117,27.012 Z M38.101,13.031 L24.067,13.031 C23.5147153,13.031 23.067,13.4787153 23.067,14.031 C23.067,14.5832847 23.5147153,15.031 24.067,15.031 L38.1,15.031 C38.6533893,15.031 39.102,14.5823893 39.102,14.029 C39.102,13.4756107 38.6533893,13.027 38.1,13.027 L38.101,13.031 Z M30.082,19.023 L24.067,19.023 C23.5147153,19.023 23.067,19.4707153 23.067,20.023 C23.067,20.5752847 23.5147153,21.023 24.067,21.023 L30.082,21.023 C30.6353893,21.023 31.084,20.5743893 31.084,20.021 C31.084,19.4676107 30.6353893,19.019 30.082,19.019 L30.082,19.023 Z" id="Shape"></path>
        </g>
    </g>
</svg>