<?xml version="1.0" encoding="UTF-8"?>
<svg width="48px" height="47px" viewBox="0 0 48 47" version="1.1" xmlns="http://www.w3.org/2000/svg" xmlns:xlink="http://www.w3.org/1999/xlink">
    <!-- Generator: Sketch 50.2 (55047) - http://www.bohemiancoding.com/sketch -->
    <title>icon-4</title>
    <desc>Created with Sketch.</desc>
    <defs></defs>
    <g id="Page-1" stroke="none" stroke-width="1" fill="none" fill-rule="evenodd">
        <g id="icon-4" transform="translate(0.000000, -1.000000)" fill="#FFFFFF">
            <path d="M35.13,7.737 C35.5253282,8.11805346 36.1531773,8.11173028 36.5407509,7.72279208 C36.9283244,7.33385388 36.9324407,6.70598641 36.55,6.312 L31.46,1.275 C31.4359167,1.25371344 31.4089926,1.23587625 31.38,1.222 C31.309268,1.15540034 31.2282193,1.10069245 31.14,1.06 C30.8930668,0.96003505 30.6169332,0.96003505 30.37,1.06 C30.2817807,1.10069245 30.200732,1.15540034 30.13,1.222 C30.1010074,1.23587625 30.0740833,1.25371344 30.05,1.275 L24.962,6.312 C24.5684973,6.70356992 24.5669304,7.33999699 24.9585002,7.7334998 C25.35007,8.12700261 25.9864971,8.1285697 26.38,7.737 L29.75,4.397 L29.75,6.827 C29.75,29.747 5.191,30.798 4.15,30.827 C3.59771527,30.8361127 3.15738734,31.2912153 3.16650004,31.8435 C3.17561274,32.3957847 3.63071527,32.8361127 4.183,32.827 L4.214,32.827 C4.488,32.818 31.764,31.692 31.764,6.817 L31.764,4.4 L35.13,7.737 Z M9.9,22.712 C15.3449866,22.6998558 19.7502642,18.2780265 19.7419886,12.8330327 C19.7337129,7.38803886 15.3150146,2.97962072 9.87001629,2.98402776 C4.42501797,2.98843481 0.0134615355,7.40399993 0.014,12.849 C0.0255821226,18.3003605 4.44862735,22.7131154 9.9,22.712 Z M9.9,4.992 C14.2368125,5.00248742 17.7449772,8.5248165 17.7379898,12.861636 C17.7310024,17.1984556 14.2115057,20.7094618 9.87468198,20.7059745 C5.53785821,20.7024871 2.02401268,17.1858252 2.024,12.849 C2.03337607,8.50616945 5.55715947,4.99088679 9.9,4.992 Z M46.983,2.874 L42.963,2.874 C42.4107153,2.874 41.963,3.32171525 41.963,3.874 L41.963,46.009 C41.963,46.5612847 42.4107153,47.009 42.963,47.009 L46.983,47.009 C47.2499449,47.0116696 47.5068754,46.9074924 47.6965801,46.7196659 C47.8862849,46.5318394 47.9930133,46.2759582 47.993,46.009 L47.993,3.876 C47.9935583,3.60816911 47.8866548,3.35130792 47.6962383,3.16295914 C47.5058219,2.97461036 47.2478088,2.87051761 46.98,2.874 L46.983,2.874 Z M45.983,45.008 L43.973,45.008 L43.973,4.879 L45.983,4.879 L45.983,45.008 Z M36.933,20.932 L32.903,20.932 C32.3507153,20.932 31.903,21.3797153 31.903,21.932 L31.903,46.008 C31.903,46.5602847 32.3507153,47.008 32.903,47.008 L36.933,47.008 C37.4852847,47.008 37.933,46.5602847 37.933,46.008 L37.933,21.935 C37.9338,21.6687434 37.828384,21.4131614 37.6401113,21.2248887 C37.4518386,21.036616 37.1962566,20.9312 36.93,20.932 L36.933,20.932 Z M35.923,45.008 L33.913,45.008 L33.913,22.939 L35.923,22.939 L35.923,45.008 Z M26.874,30.965 L22.852,30.965 C22.2997153,30.965 21.852,31.4127153 21.852,31.965 L21.852,46.007 C21.852,46.5592847 22.2997153,47.007 22.852,47.007 L26.874,47.007 C27.1402545,47.0085976 27.3961526,46.9039464 27.5849887,46.7162366 C27.7738247,46.5285268 27.8800048,46.2732593 27.88,46.007 L27.88,31.969 C27.8810808,31.7015241 27.7749612,31.4447637 27.5853564,31.2560985 C27.3957516,31.0674333 27.1384672,30.9625905 26.871,30.965 L26.874,30.965 Z M25.868,45.008 L23.857,45.008 L23.857,32.972 L25.868,32.972 L25.868,45.008 Z M16.818,36.984 L12.797,36.984 C12.5307455,36.9824024 12.2748474,37.0870536 12.0860113,37.2747634 C11.8971753,37.4624732 11.7909952,37.7177407 11.791,37.984 L11.791,46.008 C11.7909952,46.2742593 11.8971753,46.5295268 12.0860113,46.7172366 C12.2748474,46.9049464 12.5307455,47.0095976 12.797,47.008 L16.818,47.008 C17.0842545,47.0095976 17.3401526,46.9049464 17.5289887,46.7172366 C17.7178247,46.5295268 17.8240048,46.2742593 17.824,46.008 L17.824,37.984 C17.8240108,37.7172168 17.7174194,37.4614894 17.527932,37.2736921 C17.3384446,37.0858949 17.0817724,36.981599 16.815,36.984 L16.818,36.984 Z M15.818,45.008 L13.8,45.008 L13.8,38.991 L15.811,38.991 L15.811,45.008 L15.818,45.008 Z M6.766,38.991 L2.744,38.991 C2.47774546,38.9894024 2.22184742,39.0940536 2.03301135,39.2817634 C1.84417528,39.4694732 1.73799521,39.7247407 1.738,39.991 L1.738,46.008 C1.73799521,46.2742593 1.84417528,46.5295268 2.03301135,46.7172366 C2.22184742,46.9049464 2.47774546,47.0095976 2.744,47.008 L6.766,47.008 C7.03225454,47.0095976 7.28815258,46.9049464 7.47698865,46.7172366 C7.66582472,46.5295268 7.77200479,46.2742593 7.772,46.008 L7.772,39.991 C7.7720226,39.7235157 7.66488311,39.4671716 7.47452562,39.279257 C7.28416814,39.0913425 7.02646172,38.9875227 6.759,38.991 L6.766,38.991 Z M5.76,45.008 L3.749,45.008 L3.749,41 L5.76,41 L5.76,45.011 L5.76,45.008 Z M6.335,12.814 L7.663,12.814 L7.663,7.5 L10.639,7.5 C11.2603612,7.48576481 11.8789302,7.58750313 12.463,7.8 C12.9228351,7.97033825 13.3403829,8.23812831 13.687,8.585 C13.9991058,8.90729513 14.2343027,9.29598539 14.375,9.722 C14.5186728,10.1537804 14.5916133,10.6059442 14.591,11.061 C14.5937153,11.5129534 14.520705,11.9621691 14.375,12.39 C14.2313685,12.805529 13.9962499,13.1834959 13.687,13.496 C13.3399567,13.8363932 12.9219967,14.0959108 12.463,14.256 C11.8765404,14.4573588 11.2588705,14.5525152 10.639,14.537 L9.739,14.537 L9.739,15.754 L12.555,15.754 L12.555,17.4 L9.739,17.4 L9.739,18.713 L7.659,18.713 L7.659,17.4 L6.331,17.4 L6.331,15.749 L7.659,15.749 L7.659,14.532 L6.331,14.532 L6.331,12.817 L6.335,12.814 Z M10.435,12.814 C10.7060213,12.8160211 10.9766062,12.7919095 11.243,12.742 C11.47954,12.6996042 11.7050614,12.6098038 11.906,12.478 C12.1033444,12.344959 12.2590091,12.1587854 12.355,11.941 C12.4711955,11.65984 12.5257552,11.357034 12.515,11.053 C12.5243152,10.7406273 12.4698742,10.4296328 12.355,10.139 C12.2594217,9.90788537 12.1045393,9.70608988 11.906,9.554 C11.7080615,9.40933438 11.4823289,9.30719292 11.243,9.254 C10.9777992,9.19457796 10.7067749,9.16506046 10.435,9.166 L9.747,9.16597826 L9.747,12.819 L10.435,12.819 L10.435,12.814 Z" id="Shape"></path>
        </g>
    </g>
</svg>