<?xml version="1.0" encoding="UTF-8"?>
<svg width="10px" height="10px" viewBox="0 0 10 10" version="1.1" xmlns="http://www.w3.org/2000/svg" xmlns:xlink="http://www.w3.org/1999/xlink">
    <!-- Generator: Sketch 50.2 (55047) - http://www.bohemiancoding.com/sketch -->
    <title>no</title>
    <desc>Created with Sketch.</desc>
    <defs></defs>
    <g id="Page-1" stroke="none" stroke-width="1" fill="none" fill-rule="evenodd">
        <g id="no" transform="translate(-1.000000, -1.000000)" fill="#C6C6C6">
            <path d="M1.876,1.13 L10.838,10.09 C11.0441894,10.2974859 11.0441894,10.6325141 10.838,10.84 C10.6291622,11.0400038 10.2998378,11.0400038 10.091,10.84 L1.129,1.88 C0.92281056,1.67251409 0.92281056,1.33748591 1.129,1.13 C1.2272286,1.02939199 1.36189122,0.972666629 1.5025,0.972666629 C1.64310878,0.972666629 1.7777714,1.02939199 1.876,1.13 Z" id="Rounded_Rectangle_12_copy_5-path"></path>
            <path d="M10.838,1.88 L1.876,10.84 C1.66716219,11.0400038 1.33783781,11.0400038 1.129,10.84 C0.92281056,10.6325141 0.92281056,10.2974859 1.129,10.09 L10.091,1.13 C10.1892286,1.02939199 10.3238912,0.972666629 10.4645,0.972666629 C10.6051088,0.972666629 10.7397714,1.02939199 10.838,1.13 C11.0441894,1.33748591 11.0441894,1.67251409 10.838,1.88 Z" id="Rounded_Rectangle_12_copy_5-path"></path>
        </g>
    </g>
</svg>