<?xml version="1.0" encoding="UTF-8"?>
<svg width="18px" height="18px" viewBox="0 0 18 18" version="1.1" xmlns="http://www.w3.org/2000/svg" xmlns:xlink="http://www.w3.org/1999/xlink">
    <!-- Generator: Sketch 52.2 (67145) - http://www.bohemiancoding.com/sketch -->
    <title>search</title>
    <desc>Created with Sketch.</desc>
    <g id="Page-1" stroke="none" stroke-width="1" fill="none" fill-rule="evenodd">
        <g id="search" transform="translate(0.000000, -1.000000)" fill="#3EAC51">
            <path d="M7.5,15.972 C4.46918243,15.9724045 1.73659259,14.1469419 0.576562074,11.3469089 C-0.583468439,8.54687598 0.0575372832,5.32376063 2.20064896,3.18064896 C4.34376063,1.03753728 7.56687598,0.396531561 10.3669089,1.55656207 C13.1669419,2.71659259 14.9924045,5.44918243 14.992,8.48 C14.9875907,12.6158896 11.6358896,15.9675907 7.5,15.972 Z M7.5,2.985 C4.46571634,2.98444907 2.00529039,5.44338463 2.00400277,8.47766806 C2.00271515,11.5119515 4.46105327,13.9729744 7.49533631,13.9749987 C10.5296193,13.977023 12.991239,11.5192825 12.994,8.485 C12.9940018,5.44977548 10.5352227,2.98831115 7.5,2.985 Z M16.6,18.985 L13.049,15.434 L14.461,14.022 L18.012,17.572 L16.6,18.985 Z" id="Shape_684_copy"></path>
        </g>
    </g>
</svg>