<?xml version="1.0" encoding="UTF-8"?>
<svg width="11px" height="9px" viewBox="0 0 11 9" version="1.1" xmlns="http://www.w3.org/2000/svg" xmlns:xlink="http://www.w3.org/1999/xlink">
    <!-- Generator: Sketch 50.2 (55047) - http://www.bohemiancoding.com/sketch -->
    <title>window</title>
    <desc>Created with Sketch.</desc>
    <defs></defs>
    <g id="Page-1" stroke="none" stroke-width="1" fill="none" fill-rule="evenodd">
        <g id="window" fill="#3EAC51">
            <polygon id="Rectangle_5_copy_2-path" points="0 3 1 3 1 9 0 9"></polygon>
            <polygon id="Rectangle_5_copy_2-path" points="7 3 8 3 8 9 7 9"></polygon>
            <polygon id="Rectangle_5_copy_2-path" points="10 0 11 0 11 6 10 6"></polygon>
            <polygon id="Rectangle_5_copy_2-path" points="3 0 4 0 4 2 3 2"></polygon>
            <polygon id="Rectangle_5_copy_2-path" points="0 8 8 8 8 9 0 9"></polygon>
            <polygon id="Rectangle_5_copy_2-path" points="3 0 11 0 11 1 3 1"></polygon>
            <polygon id="Rectangle_5_copy_2-path" points="9 5 11 5 11 6 9 6"></polygon>
            <polygon id="Rectangle_5_copy_2-path" points="0 3 8 3 8 4 0 4"></polygon>
        </g>
    </g>
</svg>